<svg width="40" height="40" viewBox="0 0 40 40" fill="none" xmlns="http://www.w3.org/2000/svg">
<path d="M35.7071 23.8847L35.5271 22.0756L35.4671 22.081L35.4089 22.0919L35.7071 23.8847ZM35.7071 23.8847L35.8889 25.6939L35.9489 25.6885L36.0071 25.6794L35.7071 23.8847ZM28.3613 33.8525L29.5123 32.4451L29.4977 32.4342L28.3613 33.8525ZM28.3613 33.8525L27.2103 35.2598L27.2249 35.2725L28.3613 33.8525ZM11.6406 33.8525L10.4896 32.4469L10.4605 32.4706L10.4332 32.4942L11.6406 33.8525ZM11.6406 33.8525L12.7915 35.2616L12.8206 35.238L12.8479 35.2125L11.6406 33.8525ZM4.29296 16.1171V14.2989H4.20204L4.11295 14.3079L4.29296 16.1171ZM4.29296 16.1171V17.9354H4.38387L4.47478 17.9263L4.29296 16.1171ZM25.6939 4.11113C25.6639 3.76139 25.6209 3.41271 25.5684 3.06563C25.5123 2.68353 25.3957 2.31281 25.223 1.9674L21.9919 3.63656C21.9501 3.55474 21.9592 3.52565 21.9828 3.66929C22.0101 3.83112 22.0337 4.05658 22.0756 4.47478L25.6939 4.11113ZM25.8666 5.83848C25.9812 5.98758 25.943 6.05485 25.8794 5.70029C25.8194 5.36209 25.7721 4.88753 25.6939 4.11113L22.0737 4.47296C22.1465 5.18936 22.2083 5.83302 22.301 6.34577C22.3901 6.8367 22.5465 7.48219 22.9738 8.04221L25.8666 5.83848ZM25.8666 5.83848L22.9738 8.04221C23.3629 8.55287 23.8803 8.9514 24.4734 9.19731C25.0664 9.44322 25.714 9.52774 26.3503 9.44228L25.8666 5.83848ZM27.2085 4.73843C26.801 5.08283 26.382 5.41334 25.9521 5.72938C25.6557 5.93485 25.6794 5.86212 25.8666 5.83848L26.3503 9.44228C27.0485 9.34773 27.6158 9.00226 28.0267 8.71497C28.454 8.42041 28.9541 8.00948 29.5104 7.5531L27.2085 4.73843ZM29.0559 3.55656C28.6899 3.67832 28.3455 3.85753 28.0358 4.08749C27.7813 4.26932 27.4958 4.50387 27.2085 4.73843L29.5104 7.5531C29.8359 7.28763 30.0123 7.14399 30.1468 7.04944C30.265 6.96398 30.2487 6.99308 30.1632 7.02035L29.0559 3.55656ZM31.6087 3.68384C30.8012 3.3339 29.8942 3.28868 29.0559 3.55656L30.1632 7.02035L31.6087 3.68384ZM33.3288 5.0439C33.084 4.79218 32.8311 4.54841 32.5706 4.31296C32.2848 4.05343 31.9595 3.84106 31.6069 3.68384L30.1632 7.02035C30.0796 6.98398 30.0668 6.95489 30.1759 7.05126C30.2996 7.16036 30.4614 7.31854 30.7578 7.61492L33.3288 5.0439ZM34.9543 6.66943L33.3288 5.0439L30.7578 7.61492L32.3833 9.24045L34.9543 6.66943ZM36.3144 8.3895C36.1572 8.03692 35.9448 7.71162 35.6853 7.42582C35.4498 7.16592 35.206 6.91366 34.9543 6.66943L32.3833 9.24227C32.6797 9.53864 32.8379 9.70047 32.947 9.82411C33.0433 9.93321 33.0142 9.92048 32.9779 9.83684L36.3144 8.3895ZM36.4417 10.9423C36.7095 10.104 36.6643 9.19701 36.3144 8.3895L32.9779 9.83684L36.4417 10.9423ZM35.2598 12.7897C35.4856 12.521 35.7027 12.2451 35.9107 11.9624C36.1035 11.6933 36.3107 11.3587 36.4417 10.9423L32.9779 9.83684C33.0051 9.75138 33.0324 9.7332 32.9488 9.8532C32.8542 9.98594 32.7124 10.1623 32.4451 10.4878L35.2598 12.7897ZM34.1597 14.1334C34.1361 14.3207 34.0634 14.3425 34.2688 14.0461C34.4634 13.7643 34.7652 13.3934 35.2598 12.7897L32.4451 10.4878C31.9906 11.0442 31.5778 11.5442 31.2814 11.9715C30.996 12.3824 30.6505 12.9497 30.5559 13.6479L34.1597 14.1334ZM34.1597 14.1334L30.5559 13.6479C30.4705 14.2842 30.555 14.9318 30.8009 15.5249C31.0468 16.1179 31.4454 16.6353 31.956 17.0244L34.1597 14.1334ZM35.8871 14.3061C35.3554 14.2617 34.8254 14.1992 34.2979 14.1188C33.9434 14.0552 34.0106 14.0188 34.1597 14.1334L31.956 17.0244C32.516 17.4517 33.1597 17.6081 33.6543 17.6972C34.1652 17.7881 34.8089 17.8517 35.5253 17.9245L35.8871 14.3061ZM38.0308 14.7752C37.6854 14.6025 37.3147 14.4859 36.9326 14.4298C36.5855 14.3774 36.2368 14.3361 35.8871 14.3061L35.5253 17.9245C35.7945 17.9481 36.063 17.9784 36.3307 18.0154C36.4762 18.0408 36.4453 18.0499 36.3635 18.0081L38.0308 14.7752ZM39.7454 16.6717C39.4223 15.8528 38.8131 15.179 38.0308 14.7752L36.3653 18.0117L39.7454 16.6717ZM40 18.85C40 18.479 40 18.1099 39.98 17.7972C39.9616 17.4112 39.8818 17.0307 39.7436 16.6699L36.3653 18.0117C36.3326 17.9263 36.3435 17.8972 36.3544 18.0427C36.3653 18.2063 36.3653 18.4336 36.3653 18.8536L40 18.85ZM40 21.1482V18.85H36.3635V21.1482H40ZM39.7454 23.3265C39.9054 22.9211 39.9582 22.5319 39.98 22.1992C40 21.8883 40 21.5192 40 21.1482H36.3635C36.3635 21.5683 36.3635 21.7956 36.3526 21.9592C36.3417 22.1047 36.3307 22.0756 36.3635 21.9901L39.7454 23.3265ZM38.0308 25.223C38.8131 24.8192 39.4223 24.1454 39.7454 23.3265L36.3653 21.9919L38.0308 25.223ZM35.8871 25.6921C36.258 25.6557 36.6235 25.6194 36.9326 25.5684C37.2599 25.5139 37.6417 25.423 38.0308 25.223L36.3653 21.9919C36.4453 21.9501 36.4762 21.9592 36.3326 21.9828C36.065 22.0212 35.7964 22.0521 35.5271 22.0756L35.8871 25.6921ZM34.1616 25.8648C34.0106 25.9794 33.9434 25.943 34.2979 25.8794C34.6361 25.8194 35.1107 25.7703 35.8871 25.6921L35.5253 22.0737C34.8107 22.1465 34.1652 22.2083 33.6543 22.301C33.1615 22.3901 32.516 22.5465 31.956 22.9738L34.1616 25.8648ZM34.1616 25.8648L31.956 22.9738C31.4454 23.3629 31.0468 23.8803 30.8009 24.4734C30.555 25.0664 30.4705 25.714 30.5559 26.3503L34.1616 25.8648ZM35.2598 27.2067C34.9154 26.7998 34.5849 26.3814 34.2688 25.9521C34.0634 25.6557 34.1379 25.6775 34.1616 25.8648L30.5559 26.3503C30.6505 27.0485 30.996 27.6158 31.2832 28.0267C31.5796 28.454 31.9906 28.9541 32.4451 29.5104L35.2598 27.2067ZM36.4417 29.0541C36.3197 28.6887 36.1405 28.345 35.9107 28.0358C35.7289 27.7795 35.4943 27.4958 35.2598 27.2067L32.4451 29.5104C32.7106 29.8359 32.8542 30.0105 32.9488 30.145C33.0342 30.2632 33.007 30.2487 32.9779 30.1632L36.4417 29.0541ZM36.3144 31.6087C36.6648 30.8007 36.71 29.8929 36.4417 29.0541L32.9779 30.1632L36.3144 31.6087ZM34.9543 33.3288C35.218 33.0651 35.478 32.807 35.6853 32.5706C35.9035 32.3197 36.1398 32.0087 36.3144 31.6069L32.9779 30.1614C33.0142 30.0777 33.0433 30.0668 32.947 30.1759C32.8379 30.2996 32.6797 30.4596 32.3833 30.7578L34.9543 33.3288ZM33.3288 34.9525L34.9543 33.3288L32.3833 30.7578L30.7578 32.3815L33.3288 34.9525ZM31.6087 36.3144C31.9614 36.1566 32.2867 35.9436 32.5724 35.6834C32.8069 35.478 33.067 35.2161 33.3288 34.9525L30.7578 32.3815C30.5691 32.5747 30.3751 32.7627 30.1759 32.9451C30.0668 33.0433 30.0796 33.0142 30.1632 32.9779L31.6087 36.3144ZM29.0559 36.4417C29.8942 36.7095 30.8012 36.6643 31.6087 36.3144L30.1632 32.9779L29.0559 36.4417ZM27.2085 35.2598C27.4958 35.4943 27.7795 35.7289 28.0358 35.9107C28.3049 36.1016 28.6395 36.3089 29.0559 36.4417L30.1632 32.9779C30.2487 33.0051 30.265 33.0324 30.145 32.9488C29.9289 32.7868 29.7172 32.6189 29.5104 32.4451L27.2085 35.2598ZM25.8666 34.1616C25.6794 34.1343 25.6557 34.0616 25.9521 34.267C26.2339 34.4634 26.603 34.7634 27.2067 35.258L29.5104 32.4451C28.9541 31.9887 28.454 31.5778 28.0267 31.2814C27.6158 30.9941 27.0485 30.6505 26.3503 30.5559L25.8666 34.1616ZM25.8666 34.1616L26.3503 30.5559C25.714 30.4705 25.0664 30.555 24.4734 30.8009C23.8803 31.0468 23.3629 31.4454 22.9738 31.956L25.8666 34.1616ZM25.6921 35.8871C25.7703 35.1107 25.8194 34.6343 25.8794 34.2979C25.943 33.9434 25.9794 34.0088 25.8648 34.1597L22.9738 31.9542C22.5465 32.5142 22.3901 33.1597 22.301 33.6524C22.2101 34.1652 22.1483 34.8089 22.0756 35.5253L25.6921 35.8871ZM25.2212 38.0308C25.4212 37.6417 25.5121 37.2599 25.5666 36.9326C25.6212 36.6235 25.6539 36.258 25.6921 35.8871L22.0756 35.5253C22.0516 35.7952 22.02 36.0626 21.981 36.3307C21.9574 36.4762 21.9483 36.4453 21.9901 36.3635L25.2212 38.0308ZM23.3283 39.7454C24.1458 39.4215 24.8183 38.8124 25.2212 38.0308L21.9919 36.3653L23.3283 39.7454ZM21.1464 40C21.5192 40 21.8883 40 22.201 39.98C22.5319 39.9582 22.9211 39.9091 23.3283 39.7454L21.9919 36.3653C22.0774 36.3326 22.1065 36.3435 21.961 36.3544C21.6909 36.3656 21.4204 36.3692 21.1501 36.3653L21.1464 40ZM18.85 40H21.1464L21.1482 36.3635H18.85V40ZM16.6717 39.7454C17.0772 39.9054 17.4663 39.9582 17.799 39.98C18.1099 40 18.479 40 18.85 40V36.3635C18.4299 36.3635 18.2027 36.3635 18.039 36.3526C17.8936 36.3417 17.9227 36.3307 18.0081 36.3635L16.6717 39.7454ZM14.7752 38.0308C15.179 38.8131 15.8528 39.4223 16.6717 39.7454L18.0081 36.3635L14.7752 38.0308ZM14.3061 35.8871C14.3425 36.258 14.3789 36.6235 14.4298 36.9326C14.4843 37.2599 14.5752 37.6417 14.7752 38.0308L18.0117 36.3653C18.0536 36.4453 18.0445 36.4762 18.0208 36.3326C17.9824 36.065 17.9515 35.7964 17.9281 35.5271L14.3061 35.8871ZM14.1334 34.1597C14.0188 34.0106 14.0552 33.9416 14.1188 34.2979C14.1789 34.6343 14.2279 35.1107 14.3061 35.8871L17.9245 35.5253C17.8517 34.8089 17.7899 34.1652 17.6972 33.6524C17.6081 33.1615 17.4517 32.516 17.0244 31.956L14.1334 34.1597ZM14.1334 34.1597L17.0244 31.956C16.6353 31.4454 16.1179 31.0468 15.5249 30.8009C14.9318 30.555 14.2842 30.4705 13.6479 30.5559L14.1334 34.1597ZM12.7897 35.2598C13.3952 34.7652 13.7643 34.4634 14.0461 34.2688C14.3425 34.0634 14.3207 34.1361 14.1334 34.1597L13.6479 30.5559C12.9497 30.6505 12.3824 30.996 11.9715 31.2832C11.5442 31.5778 11.0442 31.9887 10.4878 32.4451L12.7897 35.2598ZM10.9423 36.4417C11.3084 36.3199 11.6527 36.1407 11.9624 35.9107C12.2169 35.7289 12.5024 35.4943 12.7897 35.2598L10.4896 32.4469C10.2822 32.6207 10.0718 32.7887 9.85502 32.9506C9.73683 33.0361 9.7532 33.0088 9.83866 32.9797L10.9423 36.4417ZM8.3895 36.3144C9.19701 36.6643 10.104 36.7095 10.9423 36.4417L9.83502 32.9779L8.3895 36.3144ZM6.66761 34.9543C6.93125 35.218 7.19127 35.478 7.42764 35.6853C7.67674 35.9035 7.98766 36.1416 8.39132 36.3162L9.83502 32.9779C9.91866 33.0142 9.93139 33.0433 9.82229 32.947C9.62315 32.7645 9.42913 32.5765 9.24045 32.3833L6.66761 34.9543ZM5.0439 33.3288L6.66943 34.9543L9.24045 32.3833L7.61492 30.7578L5.0439 33.3288ZM3.68384 31.6087C3.85657 32.0087 4.09476 32.3215 4.31296 32.5724C4.52024 32.8069 4.78025 33.067 5.0439 33.3288L7.61492 30.7578C7.42167 30.5691 7.23371 30.3751 7.05126 30.1759C6.95489 30.0668 6.98398 30.0796 7.02035 30.1632L3.68384 31.6087ZM3.55656 29.0559C3.28868 29.8942 3.3339 30.8012 3.68384 31.6087L7.02035 30.1632L3.55656 29.0559ZM4.73843 27.2085C4.51263 27.4772 4.29554 27.7532 4.08749 28.0358C3.85753 28.3455 3.67832 28.6899 3.55656 29.0559L7.02035 30.1632C6.99126 30.2487 6.9658 30.265 7.04944 30.145C7.14399 30.0123 7.28582 29.8359 7.5531 29.5104L4.73843 27.2085ZM5.83666 25.8648C5.86212 25.6775 5.93485 25.6557 5.72938 25.9521C5.53483 26.2339 5.233 26.6049 4.73843 27.2085L7.5531 29.5104C8.00767 28.9541 8.42041 28.454 8.71679 28.0267C9.00226 27.6158 9.34773 27.0485 9.44228 26.3503L5.83666 25.8648ZM5.83666 25.8648L9.44228 26.3503C9.52774 25.714 9.44322 25.0664 9.19731 24.4734C8.9514 23.8803 8.55287 23.3629 8.04221 22.9738L5.83666 25.8648ZM4.10931 25.6921C4.88753 25.7703 5.36391 25.8194 5.70029 25.8794C6.05485 25.943 5.98758 25.9794 5.83666 25.8648L8.04221 22.9738C7.48219 22.5465 6.83852 22.3901 6.34396 22.301C5.83302 22.2101 5.18936 22.1465 4.47115 22.0737L4.10931 25.6921ZM1.9674 25.223C2.35651 25.423 2.73834 25.5139 3.06563 25.5684C3.37473 25.6194 3.7402 25.6575 4.11113 25.6939L4.47115 22.0737C4.20186 22.0509 3.93507 22.0206 3.66747 21.9828C3.52201 21.9574 3.55292 21.9483 3.63474 21.9901L1.9674 25.223ZM0.254594 23.3283C0.577755 24.1472 1.18697 24.821 1.96922 25.2248L3.63656 21.9919L0.254594 23.3283ZM3.71037e-05 21.1501C3.71037e-05 21.521 3.71716e-05 21.8901 0.0200381 22.2028C0.0418572 22.5338 0.0927685 22.9229 0.256412 23.3302L3.63656 21.9901C3.66929 22.0756 3.65838 22.1047 3.64929 21.9592C3.63755 21.6897 3.6333 21.4198 3.63656 21.1501H3.71037e-05ZM3.71037e-05 18.8518V21.1501H3.63656V18.8518H3.71037e-05ZM0.254594 16.6717C0.117035 17.0326 0.0378572 17.4132 0.0200381 17.799C-0.00178109 18.1117 3.71037e-05 18.4809 3.71037e-05 18.8536H3.63656C3.63656 18.4318 3.63656 18.2045 3.64929 18.0408C3.65838 17.8954 3.66929 17.9245 3.63656 18.0099L0.254594 16.6717ZM1.96922 14.7789C1.18763 15.1818 0.578496 15.8542 0.254594 16.6717L3.63656 18.0099L1.96922 14.7789ZM4.11295 14.3061C3.74202 14.3443 3.37655 14.3789 3.06745 14.4334C2.74016 14.488 2.35832 14.5789 1.96922 14.7789L3.63656 18.0099C3.55474 18.0517 3.52565 18.0427 3.66929 18.019C3.93687 17.9806 4.20548 17.9497 4.47478 17.9263L4.11295 14.3061ZM5.8403 14.1352C5.99121 14.0207 6.05849 14.057 5.70211 14.1207C5.36573 14.1807 4.88935 14.2298 4.11295 14.3079L4.47478 17.9263C5.18936 17.8536 5.83484 17.7917 6.34759 17.699C6.84034 17.6099 7.48583 17.4535 8.04585 17.0262L5.8403 14.1352ZM5.8403 14.1352L8.04585 17.0262C8.55617 16.6369 8.95435 16.1194 9.19993 15.5264C9.44552 14.9334 9.52976 14.2859 9.44409 13.6497L5.8403 14.1352ZM4.74025 12.7915C5.23482 13.3952 5.53665 13.7661 5.73302 14.0479C5.93848 14.3443 5.86575 14.3225 5.8403 14.1352L9.44409 13.6497C9.34954 12.9515 9.00589 12.386 8.71861 11.9733C8.42223 11.546 8.00949 11.046 7.55492 10.4896L4.74025 12.7915ZM3.55838 10.9423C3.69111 11.3605 3.89657 11.6933 4.08931 11.9642C4.27114 12.2188 4.50569 12.5042 4.74025 12.7915L7.55492 10.4896C7.38115 10.2822 7.21319 10.0718 7.05126 9.85502C6.9658 9.73683 6.99489 9.75138 7.02217 9.83684L3.55838 10.9423ZM3.68566 8.39132C3.33617 9.1983 3.29096 10.1046 3.55838 10.9423L7.02217 9.83684L3.68566 8.39132ZM5.04572 6.66943C4.78207 6.93307 4.52206 7.19127 4.31477 7.42764C4.05525 7.71344 3.84288 8.03874 3.68566 8.39132L7.02217 9.83684C6.9858 9.92048 6.95671 9.93321 7.05308 9.82229C7.16217 9.69865 7.32036 9.53864 7.61674 9.24045L5.04572 6.66943ZM6.67124 5.04572L5.04572 6.66943L7.61674 9.24045L9.24409 7.61674L6.67124 5.04572ZM8.39132 3.68384C8.03861 3.84162 7.71331 4.0546 7.42764 4.31477C7.16774 4.55025 6.91548 4.79403 6.67124 5.04572L9.24409 7.61674C9.54046 7.31854 9.70047 7.16036 9.82411 7.05308C9.93321 6.95489 9.92048 6.98398 9.83684 7.02035L8.39132 3.68384ZM10.9442 3.55656C10.1058 3.28868 9.19883 3.3339 8.39132 3.68384L9.83684 7.02035L10.9442 3.55656ZM12.7897 4.73843C12.5024 4.50387 12.2206 4.27114 11.9642 4.08931C11.6546 3.85871 11.3103 3.67888 10.9442 3.55656L9.83684 7.02035C9.75138 6.99308 9.73502 6.9658 9.85502 7.04944C9.98775 7.14581 10.1641 7.28763 10.4896 7.55492L12.7897 4.73843ZM14.1352 5.83848C14.3225 5.86393 14.3443 5.93667 14.0479 5.7312C13.6187 5.41512 13.2002 5.08462 12.7933 4.74025L10.4896 7.55492C11.046 8.00949 11.5442 8.42041 11.9715 8.71861C12.3824 9.00407 12.9497 9.34773 13.6479 9.44228L14.1352 5.83848ZM14.1352 5.83848L13.6497 9.44228C14.286 9.52774 14.9336 9.44322 15.5267 9.19731C16.1197 8.9514 16.6371 8.55287 17.0262 8.04221L14.1352 5.83848ZM14.3079 4.11113C14.2298 4.88935 14.1807 5.36573 14.1207 5.70211C14.057 6.05667 14.0207 5.98939 14.1352 5.83848L17.0262 8.04221C17.4535 7.48219 17.6099 6.83852 17.699 6.34577C17.7899 5.83484 17.8554 5.18936 17.9263 4.47296L14.3079 4.11113ZM14.7771 1.96922C14.6043 2.31463 14.4877 2.68535 14.4316 3.06745C14.3807 3.37655 14.3443 3.74202 14.3079 4.11295L17.9263 4.47296C17.9499 4.20376 17.9803 3.937 18.0172 3.66929C18.0427 3.52383 18.0517 3.55656 18.0099 3.63656L14.7771 1.96922ZM16.6735 0.254594C15.8547 0.577755 15.1808 1.18697 14.7771 1.96922L18.0099 3.63656L16.6735 0.254594ZM18.8518 3.71037e-05C18.4809 3.71037e-05 18.1117 3.71716e-05 17.799 0.0200381C17.4132 0.0378572 17.0326 0.117035 16.6717 0.254594L18.0117 3.63656C17.9263 3.66929 17.8972 3.65838 18.0427 3.64929C18.2063 3.63838 18.4336 3.63656 18.8536 3.63656L18.8518 3.71037e-05ZM21.1501 3.71037e-05H18.8518V3.63656H21.1501V3.71037e-05ZM23.3283 0.254594C22.9674 0.117035 22.5869 0.0378572 22.201 0.0200381C21.8919 -0.00178109 21.5228 3.71037e-05 21.1519 3.71037e-05V3.63656C21.5719 3.63656 21.7992 3.63656 21.9628 3.64929C22.1083 3.65838 22.0774 3.66929 21.9919 3.63656L23.3283 0.254594ZM25.2248 1.96922C24.821 1.18697 24.1472 0.577755 23.3283 0.254594L21.9919 3.63656L25.2248 1.96922ZM25.4557 20.0009C25.4557 21.4476 24.881 22.8351 23.858 23.858C22.8351 24.881 21.4476 25.4557 20.0009 25.4557V29.0922C22.4121 29.0922 24.7245 28.1344 26.4295 26.4295C28.1344 24.7245 29.0922 22.4121 29.0922 20.0009H25.4557ZM20.0009 14.5461C21.4476 14.5461 22.8351 15.1208 23.858 16.1438C24.881 17.1668 25.4557 18.5542 25.4557 20.0009H29.0922C29.0922 17.5898 28.1344 15.2773 26.4295 13.5724C24.7245 11.8674 22.4121 10.9096 20.0009 10.9096V14.5461ZM14.5461 20.0009C14.5461 18.5542 15.1208 17.1668 16.1438 16.1438C17.1668 15.1208 18.5542 14.5461 20.0009 14.5461V10.9096C17.5898 10.9096 15.2773 11.8674 13.5724 13.5724C11.8674 15.2773 10.9096 17.5898 10.9096 20.0009H14.5461ZM20.0009 25.4557C18.5542 25.4557 17.1668 24.881 16.1438 23.858C15.1208 22.8351 14.5461 21.4476 14.5461 20.0009H10.9096C10.9096 22.4121 11.8674 24.7245 13.5724 26.4295C15.2773 28.1344 17.5898 29.0922 20.0009 29.0922V25.4557Z" fill="white"/>
</svg>
