<svg width="35" height="46" viewBox="0 0 35 46" fill="none" xmlns="http://www.w3.org/2000/svg">
<path d="M24.9801 32.2758C22.7667 33.7467 20.1634 34.5319 17.5001 34.5319C14.8369 34.5319 12.2336 33.7467 10.0201 32.2758" fill="white"/>
<path d="M30 17.3793C30 21.4435 28.0375 25.051 24.99 27.3177L27.99 31.2901C30.1677 29.6729 31.9354 27.5733 33.1523 25.1584C34.3693 22.7434 35.0019 20.0797 35 17.3793H30ZM17.5 4.9655C20.8152 4.9655 23.9946 6.27338 26.3388 8.60141C28.683 10.9294 30 14.0869 30 17.3793H35C35 12.77 33.1562 8.34951 29.8744 5.09027C26.5925 1.83102 22.1413 0 17.5 0V4.9655ZM5 17.3793C5 14.0869 6.31696 10.9294 8.66117 8.60141C11.0054 6.27338 14.1848 4.9655 17.5 4.9655V0C12.8587 0 8.40752 1.83102 5.12563 5.09027C1.84375 8.34951 4.48506e-06 12.77 4.48506e-06 17.3793H5ZM10.01 27.3177C8.45325 26.163 7.18962 24.6632 6.31981 22.9377C5.44999 21.2123 4.99805 19.3089 5 17.3793H4.48506e-06C-0.00194356 20.0797 0.630723 22.7434 1.84767 25.1584C3.06463 27.5733 4.83228 29.6729 7.01 31.2901L10.01 27.3177ZM14.9925 41.5687C14.9132 37.783 14.1256 34.045 12.67 30.5453L8.05 32.4446C9.265 35.3668 9.9275 38.4951 9.995 41.673L14.9925 41.5687ZM20.855 40.2479C19.8133 40.7653 18.6647 41.0347 17.5 41.0347C16.3353 41.0347 15.1867 40.7653 14.145 40.2479L11.91 44.6895C13.6456 45.5513 15.5595 46 17.5 46C19.4405 46 21.3544 45.5513 23.09 44.6895L20.855 40.2479ZM22.33 30.5478C20.8738 34.0465 20.0854 37.7837 20.005 41.5687L25.005 41.673C25.0725 38.4951 25.735 35.3668 26.95 32.4446L22.33 30.5478ZM23.09 44.6895C23.6555 44.4075 24.1328 43.9775 24.4702 43.4459C24.8077 42.9143 24.9926 42.3013 25.005 41.673L20.005 41.5687C20.0119 41.2925 20.0947 41.0234 20.2445 40.7906C20.3944 40.5578 20.6055 40.3701 20.855 40.2479L23.09 44.6895ZM9.995 41.673C10.02 42.9243 10.73 44.1036 11.91 44.6895L14.145 40.2479C14.3945 40.3701 14.6056 40.5578 14.7555 40.7906C14.9053 41.0234 14.9881 41.2925 14.995 41.5687L9.995 41.673ZM7.01 31.2901C7.385 31.5732 7.6075 31.737 7.7625 31.8612C7.92 31.9903 7.89 31.9853 7.82 31.8959L11.77 28.8521C11.3025 28.2512 10.5775 27.7398 10.01 27.3177L7.01 31.2901ZM12.67 30.5453C12.475 30.0761 12.2275 29.4355 11.77 28.8521L7.82 31.8959C7.7875 31.8512 7.78 31.8289 7.8125 31.8959L7.9 32.0896L8.05 32.4446L12.67 30.5453ZM24.99 27.3177C24.4225 27.7398 23.695 28.2537 23.2275 28.8521L27.18 31.8959C27.1125 31.9828 27.08 31.9903 27.2375 31.8636C27.3925 31.737 27.6125 31.5732 27.99 31.2926L24.99 27.3177ZM26.95 32.4446L27.1 32.0896L27.1875 31.8959C27.22 31.8289 27.2125 31.8512 27.18 31.8959L23.2275 28.8521C22.77 29.438 22.525 30.0761 22.33 30.5478L26.95 32.4446Z" fill="white"/>
</svg>
