<svg width="40" height="40" viewBox="0 0 40 40" fill="none" xmlns="http://www.w3.org/2000/svg">
<path d="M6.66667 0C3 0 0 2.98333 0 6.66667V8.33333C0 8.77536 0.175595 9.19928 0.488156 9.51184C0.800716 9.8244 1.22464 10 1.66667 10C2.10869 10 2.53262 9.8244 2.84518 9.51184C3.15774 9.19928 3.33333 8.77536 3.33333 8.33333V6.66667C3.33333 5.78261 3.68452 4.93476 4.30964 4.30964C4.93476 3.68452 5.78261 3.33333 6.66667 3.33333H8.33333C8.77536 3.33333 9.19928 3.15774 9.51184 2.84518C9.8244 2.53262 10 2.10869 10 1.66667C10 1.22464 9.8244 0.800716 9.51184 0.488156C9.19928 0.175595 8.77536 0 8.33333 0H6.66667ZM40 8.33333V6.66667C40 3 37.0167 0 33.3333 0H31.6667C31.2246 0 30.8007 0.175595 30.4882 0.488156C30.1756 0.800716 30 1.22464 30 1.66667C30 2.10869 30.1756 2.53262 30.4882 2.84518C30.8007 3.15774 31.2246 3.33333 31.6667 3.33333H33.3333C34.2174 3.33333 35.0652 3.68452 35.6904 4.30964C36.3155 4.93476 36.6667 5.78261 36.6667 6.66667V8.33333C36.6667 8.77536 36.8423 9.19928 37.1548 9.51184C37.4674 9.8244 37.8913 10 38.3333 10C38.7754 10 39.1993 9.8244 39.5118 9.51184C39.8244 9.19928 40 8.77536 40 8.33333ZM33.3333 40H31.6667C31.2246 40 30.8007 39.8244 30.4882 39.5118C30.1756 39.1993 30 38.7754 30 38.3333C30 37.8913 30.1756 37.4674 30.4882 37.1548C30.8007 36.8423 31.2246 36.6667 31.6667 36.6667H33.3333C34.2174 36.6667 35.0652 36.3155 35.6904 35.6904C36.3155 35.0652 36.6667 34.2174 36.6667 33.3333V31.6667C36.6667 31.2246 36.8423 30.8007 37.1548 30.4882C37.4674 30.1756 37.8913 30 38.3333 30C38.7754 30 39.1993 30.1756 39.5118 30.4882C39.8244 30.8007 40 31.2246 40 31.6667V33.3333C40 37 37.0167 40 33.3333 40ZM0 33.3333C0 37 2.98333 40 6.66667 40H8.33333C8.77536 40 9.19928 39.8244 9.51184 39.5118C9.8244 39.1993 10 38.7754 10 38.3333C10 37.8913 9.8244 37.4674 9.51184 37.1548C9.19928 36.8423 8.77536 36.6667 8.33333 36.6667H6.66667C5.78261 36.6667 4.93476 36.3155 4.30964 35.6904C3.68452 35.0652 3.33333 34.2174 3.33333 33.3333V31.6667C3.33333 31.2246 3.15774 30.8007 2.84518 30.4882C2.53262 30.1756 2.10869 30 1.66667 30C1.22464 30 0.800716 30.1756 0.488156 30.4882C0.175595 30.8007 0 31.2246 0 31.6667V33.3333ZM16.6667 1.66667C16.6667 1.22464 16.8423 0.800716 17.1548 0.488156C17.4674 0.175595 17.8913 0 18.3333 0H21.6667C22.1087 0 22.5326 0.175595 22.8452 0.488156C23.1577 0.800716 23.3333 1.22464 23.3333 1.66667C23.3333 2.10869 23.1577 2.53262 22.8452 2.84518C22.5326 3.15774 22.1087 3.33333 21.6667 3.33333H18.3333C17.8913 3.33333 17.4674 3.15774 17.1548 2.84518C16.8423 2.53262 16.6667 2.10869 16.6667 1.66667ZM3.33333 18.3333C3.33333 17.8913 3.15774 17.4674 2.84518 17.1548C2.53262 16.8423 2.10869 16.6667 1.66667 16.6667C1.22464 16.6667 0.800716 16.8423 0.488156 17.1548C0.175595 17.4674 0 17.8913 0 18.3333V21.6667C0 22.1087 0.175595 22.5326 0.488156 22.8452C0.800716 23.1577 1.22464 23.3333 1.66667 23.3333C2.10869 23.3333 2.53262 23.1577 2.84518 22.8452C3.15774 22.5326 3.33333 22.1087 3.33333 21.6667V18.3333ZM16.6667 38.3333C16.6667 37.8913 16.8423 37.4674 17.1548 37.1548C17.4674 36.8423 17.8913 36.6667 18.3333 36.6667H21.6667C22.1087 36.6667 22.5326 36.8423 22.8452 37.1548C23.1577 37.4674 23.3333 37.8913 23.3333 38.3333C23.3333 38.7754 23.1577 39.1993 22.8452 39.5118C22.5326 39.8244 22.1087 40 21.6667 40H18.3333C17.8913 40 17.4674 39.8244 17.1548 39.5118C16.8423 39.1993 16.6667 38.7754 16.6667 38.3333ZM40 18.3333C40 17.8913 39.8244 17.4674 39.5118 17.1548C39.1993 16.8423 38.7754 16.6667 38.3333 16.6667C37.8913 16.6667 37.4674 16.8423 37.1548 17.1548C36.8423 17.4674 36.6667 17.8913 36.6667 18.3333V21.6667C36.6667 22.1087 36.8423 22.5326 37.1548 22.8452C37.4674 23.1577 37.8913 23.3333 38.3333 23.3333C38.7754 23.3333 39.1993 23.1577 39.5118 22.8452C39.8244 22.5326 40 22.1087 40 21.6667V18.3333Z" fill="white"/>
</svg>
