<svg width="40" height="40" viewBox="0 0 40 40" fill="none" xmlns="http://www.w3.org/2000/svg">
<path d="M8 24H14.1L24.1 14C24.4 13.7 24.6253 13.358 24.776 12.974C24.9267 12.59 25.0013 12.2153 25 11.85C24.9987 11.4847 24.9153 11.1267 24.75 10.776C24.5847 10.4253 24.368 10.1 24.1 9.8L22.3 7.9C22 7.6 21.6667 7.37533 21.3 7.226C20.9333 7.07667 20.55 7.00133 20.15 7C19.7833 7 19.4087 7.07533 19.026 7.226C18.6433 7.37667 18.3013 7.60133 18 7.9L8 17.9V24ZM11 21V19.1L16.05 14.05L17.05 14.95L17.95 15.95L12.9 21H11ZM17.05 14.95L17.95 15.95L16.05 14.05L17.05 14.95ZM18.35 24H32V20H22.35L18.35 24ZM0 40V4C0 2.9 0.392 1.95867 1.176 1.176C1.96 0.393333 2.90133 0.00133333 4 0H36C37.1 0 38.042 0.392 38.826 1.176C39.61 1.96 40.0013 2.90133 40 4V28C40 29.1 39.6087 30.042 38.826 30.826C38.0433 31.61 37.1013 32.0013 36 32H8L0 40ZM6.3 28H36V4H4V30.25L6.3 28Z" fill="white"/>
</svg>
