<svg width="48" height="48" viewBox="0 0 48 48" fill="none" xmlns="http://www.w3.org/2000/svg">
<g filter="url(#filter0_d_1070_19259)">
<path d="M12 24H18.1L28.1 14C28.4 13.7 28.6253 13.358 28.776 12.974C28.9267 12.59 29.0013 12.2153 29 11.85C28.9987 11.4847 28.9153 11.1267 28.75 10.776C28.5847 10.4253 28.368 10.1 28.1 9.8L26.3 7.9C26 7.6 25.6667 7.37533 25.3 7.226C24.9333 7.07667 24.55 7.00133 24.15 7C23.7833 7 23.4087 7.07533 23.026 7.226C22.6433 7.37667 22.3013 7.60133 22 7.9L12 17.9V24ZM15 21V19.1L20.05 14.05L21.05 14.95L21.95 15.95L16.9 21H15ZM21.05 14.95L21.95 15.95L20.05 14.05L21.05 14.95ZM22.35 24H36V20H26.35L22.35 24ZM4 40V4C4 2.9 4.392 1.95867 5.176 1.176C5.96 0.393333 6.90133 0.00133333 8 0H40C41.1 0 42.042 0.392 42.826 1.176C43.61 1.96 44.0013 2.90133 44 4V28C44 29.1 43.6087 30.042 42.826 30.826C42.0433 31.61 41.1013 32.0013 40 32H12L4 40ZM10.3 28H40V4H8V30.25L10.3 28Z" fill="white"/>
</g>
<defs>
<filter id="filter0_d_1070_19259" x="0" y="0" width="48" height="48" filterUnits="userSpaceOnUse" color-interpolation-filters="sRGB">
<feFlood flood-opacity="0" result="BackgroundImageFix"/>
<feColorMatrix in="SourceAlpha" type="matrix" values="0 0 0 0 0 0 0 0 0 0 0 0 0 0 0 0 0 0 127 0" result="hardAlpha"/>
<feOffset dy="4"/>
<feGaussianBlur stdDeviation="2"/>
<feComposite in2="hardAlpha" operator="out"/>
<feColorMatrix type="matrix" values="0 0 0 0 0 0 0 0 0 0 0 0 0 0 0 0 0 0 0.25 0"/>
<feBlend mode="normal" in2="BackgroundImageFix" result="effect1_dropShadow_1070_19259"/>
<feBlend mode="normal" in="SourceGraphic" in2="effect1_dropShadow_1070_19259" result="shape"/>
</filter>
</defs>
</svg>
